<?xml version="1.0" encoding="utf-8"?>
<!-- Generator: Adobe Illustrator 25.4.0, SVG Export Plug-In . SVG Version: 6.00 Build 0)  -->
<svg version="1.1" id="Capa_1" xmlns="http://www.w3.org/2000/svg" xmlns:xlink="http://www.w3.org/1999/xlink" x="0px" y="0px"
	 viewBox="0 0 29.7 29.7" style="enable-background:new 0 0 29.7 29.7;" xml:space="preserve">
<style type="text/css">
	.st0{display:none;}
	.st1{display:inline;fill:#7C7C7C;stroke:#1D1D1B;stroke-miterlimit:10;}
	.st2{display:inline;}
	.st3{fill:#2B2622;}
	.st4{fill:#FF5959;}
	.st5{fill:#FFFFFF;}
	.st6{fill:none;stroke:#2B2622;stroke-width:1.5;stroke-linecap:round;stroke-linejoin:round;stroke-miterlimit:10;}
	.st7{fill:#64605D;}
	.st8{fill:#FF5A5D;}
	.st9{fill:none;stroke:#F9F9F9;stroke-miterlimit:10;}
	.st10{fill:none;stroke:#BAB7B5;stroke-miterlimit:10;}
	.st11{fill:none;stroke:#FF5A5D;stroke-width:2;stroke-linecap:round;stroke-linejoin:round;stroke-miterlimit:10;}
	.st12{fill:#BDBDBC;}
	.st13{fill:#2E2925;}
	.st14{clip-path:url(#SVGID_00000138550211042792066170000014151383476473784452_);}
	.st15{clip-path:url(#SVGID_00000020376127790399673150000016287070309603000506_);}
</style>
<g>
	<path class="st8" d="M29.7,14.9C29.7,6.7,23.1,0,14.9,0S0,6.7,0,14.9s6.7,14.9,14.9,14.9C23.1,29.7,29.7,23.1,29.7,14.9"/>
	<path class="st9" d="M22.3,19.6c0,0.5-0.4,0.9-0.9,0.9H8.3c-0.5,0-0.9-0.4-0.9-0.9v-9.1c0-0.5,0.4-0.9,0.9-0.9h13.1
		c0.5,0,0.9,0.4,0.9,0.9L22.3,19.6L22.3,19.6z"/>
	<polyline class="st9" points="7.5,10 14.9,15.9 22,10 	"/>
</g>
</svg>
