<?xml version="1.0" encoding="utf-8"?>
<!-- Generator: Adobe Illustrator 25.4.0, SVG Export Plug-In . SVG Version: 6.00 Build 0)  -->
<svg version="1.1" id="Capa_1" xmlns="http://www.w3.org/2000/svg" xmlns:xlink="http://www.w3.org/1999/xlink" x="0px" y="0px"
	 viewBox="0 0 29.7 29.7" style="enable-background:new 0 0 29.7 29.7;" xml:space="preserve">
<style type="text/css">
	.st0{display:none;}
	.st1{display:inline;fill:#7C7C7C;stroke:#1D1D1B;stroke-miterlimit:10;}
	.st2{display:inline;}
	.st3{fill:#2B2622;}
	.st4{fill:#FF5959;}
	.st5{fill:#FFFFFF;}
	.st6{fill:none;stroke:#2B2622;stroke-width:1.5;stroke-linecap:round;stroke-linejoin:round;stroke-miterlimit:10;}
	.st7{fill:#64605D;}
	.st8{fill:#FF5A5D;}
	.st9{fill:none;stroke:#F9F9F9;stroke-miterlimit:10;}
	.st10{fill:none;stroke:#BAB7B5;stroke-miterlimit:10;}
	.st11{fill:none;stroke:#FF5A5D;stroke-width:2;stroke-linecap:round;stroke-linejoin:round;stroke-miterlimit:10;}
	.st12{fill:#BDBDBC;}
	.st13{fill:#2E2925;}
	.st14{clip-path:url(#SVGID_00000176021960098538245390000007480253675340043947_);}
	.st15{clip-path:url(#SVGID_00000099647424463338476070000017371651911398260145_);}
</style>
<g>
	<path class="st8" d="M29.7,14.9C29.7,6.7,23.1,0,14.9,0C6.7,0,0,6.7,0,14.9c0,8.2,6.7,14.9,14.9,14.9
		C23.1,29.7,29.7,23.1,29.7,14.9"/>
	<path class="st5" d="M19.5,15.3l0.6-3.7c0-0.1,0-0.2-0.1-0.3c-0.1-0.1-0.2-0.1-0.3-0.1h-9.3L9.9,8.9c0-0.2-0.2-0.3-0.4-0.3H6.6
		C6.4,8.6,6.2,8.8,6.2,9s0.2,0.4,0.4,0.4h2.6l2.1,8.2c0,0.2,0.2,0.3,0.4,0.3h7.8c0.2,0,0.4-0.2,0.4-0.4s-0.2-0.4-0.4-0.4H12
		l-0.4-1.5h7.5C19.3,15.6,19.5,15.5,19.5,15.3 M11.4,14.8l-0.7-2.9h8.6l-0.5,2.9H11.4z"/>
	<path class="st5" d="M18.2,18.8c-0.8,0-1.4,0.6-1.4,1.4s0.6,1.4,1.4,1.4c0.8,0,1.4-0.6,1.4-1.4S19,18.8,18.2,18.8"/>
	<path class="st5" d="M13,18.8c-0.8,0-1.4,0.6-1.4,1.4s0.6,1.4,1.4,1.4c0.8,0,1.4-0.6,1.4-1.4S13.8,18.8,13,18.8"/>
</g>
</svg>
