<?xml version="1.0" encoding="utf-8"?>
<!-- Generator: Adobe Illustrator 25.4.0, SVG Export Plug-In . SVG Version: 6.00 Build 0)  -->
<svg version="1.1" id="Capa_1" xmlns="http://www.w3.org/2000/svg" xmlns:xlink="http://www.w3.org/1999/xlink" x="0px" y="0px"
	 viewBox="0 0 53.4 53.4" style="enable-background:new 0 0 53.4 53.4;" xml:space="preserve">
<style type="text/css">
	.st0{fill:#64605D;}
</style>
<g>
	<path class="st0" d="M26.7,0C12,0,0,12,0,26.7s12,26.7,26.7,26.7s26.7-12,26.7-26.7S41.5,0,26.7,0 M28.3,50.2v-0.9
		c0-0.9-0.7-1.6-1.6-1.6s-1.6,0.7-1.6,1.6v0.9c-11.8-0.8-21.2-10.2-22-22H4c0.9,0,1.6-0.7,1.6-1.6S4.9,25,4,25H3.2
		C4,13.4,13.4,4,25.2,3.2v0.9c0,0.9,0.7,1.6,1.6,1.6s1.6-0.7,1.6-1.6V3.2c11.8,0.8,21.2,10.2,22,22h-0.9c-0.9,0-1.6,0.7-1.6,1.6
		s0.7,1.6,1.6,1.6h0.9C49.5,40.1,40,49.5,28.3,50.2"/>
	<path class="st0" d="M28.3,23.8V11.3c0-0.9-0.7-1.6-1.6-1.6s-1.6,0.7-1.6,1.6v12.5c-1,0.6-1.7,1.6-1.7,2.9c0,0.2,0,0.5,0.1,0.7
		l-12,12c-0.6,0.6-0.6,1.6,0,2.2c0.3,0.3,0.7,0.5,1.1,0.5c0.4,0,0.8-0.2,1.1-0.5l11.8-11.9c0.4,0.1,0.8,0.2,1.2,0.2
		c1.8,0,3.3-1.5,3.3-3.3C30,25.5,29.3,24.4,28.3,23.8"/>
</g>
</svg>
