<?xml version="1.0" encoding="utf-8"?>
<!-- Generator: Adobe Illustrator 25.4.0, SVG Export Plug-In . SVG Version: 6.00 Build 0)  -->
<svg version="1.1" id="Capa_1" xmlns="http://www.w3.org/2000/svg" xmlns:xlink="http://www.w3.org/1999/xlink" x="0px" y="0px"
	 viewBox="0 0 83.4 53.2" style="enable-background:new 0 0 83.4 53.2;" xml:space="preserve">
<style type="text/css">
	.st0{fill:#64605D;}
</style>
<g>
	<path class="st0" d="M7.8,20.5c0.8,0,1.2,0.4,1.2,1.3c0,2.6-1.7,4.5-4.4,4.5S0,24.1,0,21.4c0-2.8,1.9-4.9,4.6-4.9
		c2,0,3.7,1,3.7,1.9c0,0.6-0.4,0.9-0.8,0.9c-0.9,0-1.1-1-2.8-1s-2.5,1.5-2.5,3.1s0.8,3.1,2.5,3.1c1.1,0,2.3-0.6,2.3-2.1H5.5
		c-0.6,0-0.9-0.4-0.9-0.9c0-0.6,0.4-0.9,0.9-0.9C5.5,20.5,7.8,20.5,7.8,20.5z"/>
	<path class="st0" d="M11.1,17.7c0-0.6,0.4-1,1-1h2.4c2.1,0,3.3,0.9,3.3,3c0,1.5-1.1,2.3-2.5,2.5l2.3,2.4c0.2,0.2,0.3,0.4,0.3,0.6
		c0,0.5-0.4,1-1,1c-0.2,0-0.6-0.1-0.8-0.3l-3-3.6l0,0v2.9c0,0.7-0.4,1-1,1s-1-0.4-1-1L11.1,17.7L11.1,17.7z M13.1,20.9h1.4
		c0.7,0,1.2-0.4,1.2-1.2c0-0.8-0.5-1.2-1.2-1.2h-1.4V20.9z"/>
	<path class="st0" d="M22.1,17.6c0.2-0.6,0.8-1.1,1.4-1.1c0.7,0,1.2,0.5,1.4,1.1l2.6,7.3c0.1,0.2,0.1,0.4,0.1,0.5
		c0,0.5-0.4,0.9-0.9,0.9c-0.6,0-0.8-0.3-1-0.7l-0.4-1.3h-3.7l-0.4,1.2c-0.1,0.4-0.4,0.7-1,0.7c-0.5,0-1-0.4-1-0.9
		c0-0.2,0.1-0.4,0.1-0.4L22.1,17.6z M22.2,22.5h2.5l-1.2-3.9l0,0L22.2,22.5z"/>
	<path class="st0" d="M30,18.5h-1.5c-0.6,0-0.9-0.5-0.9-0.9c0-0.5,0.3-0.9,0.9-0.9h4.9c0.6,0,0.9,0.5,0.9,0.9c0,0.5-0.3,0.9-0.9,0.9
		H32v6.7c0,0.7-0.4,1-1,1s-1-0.4-1-1V18.5z"/>
	<path class="st0" d="M36.2,17.6c0-0.7,0.4-1,1-1s1,0.4,1,1v7.6c0,0.7-0.4,1-1,1s-1-0.4-1-1V17.6z"/>
	<path class="st0" d="M46.4,17.8c0,0.5-0.3,1-0.9,1c-0.5,0-1-0.4-1.8-0.4c-0.6,0-1.1,0.3-1.1,0.9c0,1.4,4.5,0.5,4.5,3.9
		c0,1.9-1.6,3.1-3.4,3.1c-1,0-3.2-0.2-3.2-1.5c0-0.5,0.3-0.9,0.9-0.9c0.6,0,1.4,0.5,2.2,0.5c0.9,0,1.4-0.5,1.4-1.2
		c0-1.6-4.5-0.6-4.5-3.7c0-1.9,1.5-3,3.3-3C44.5,16.5,46.4,16.8,46.4,17.8"/>
	<path class="st0" d="M21.6,53.2c-5.7,0-10.4-4.7-10.4-10.4s4.7-10.4,10.4-10.4S32,37.1,32,42.8S27.4,53.2,21.6,53.2 M21.6,35.7
		c-3.9,0-7.1,3.2-7.1,7.1s3.2,7.1,7.1,7.1s7.1-3.2,7.1-7.1S25.5,35.7,21.6,35.7"/>
	<path class="st0" d="M68.1,53.2c-5.7,0-10.4-4.7-10.4-10.4s4.7-10.4,10.4-10.4s10.4,4.7,10.4,10.4S73.9,53.2,68.1,53.2 M68.1,35.7
		c-3.9,0-7.1,3.2-7.1,7.1s3.2,7.1,7.1,7.1s7.1-3.2,7.1-7.1S72,35.7,68.1,35.7"/>
	<path class="st0" d="M81.7,44.5h-4.8c-0.9,0-1.7-0.7-1.7-1.7c0-3.9-3.2-7.1-7.1-7.1S61,38.9,61,42.8c0,0.9-0.8,1.7-1.7,1.7H55
		c-0.9,0-1.7-0.7-1.7-1.7v-34c0-0.9,0.7-1.7,1.7-1.7h14.3c4.9,0.2,13.9,3.2,13.9,12.8v22.8C83.4,43.7,82.6,44.5,81.7,44.5
		 M78.4,41.1H80V19.9c0-3.7-1.7-6.4-5.2-8c-2.7-1.3-5.5-1.4-5.5-1.4H56.8v30.6h1.1c0.8-4.9,5.1-8.7,10.3-8.7
		C73.3,32.4,77.6,36.2,78.4,41.1"/>
	<path class="st0" d="M81.7,29H66.4c-0.9,0-1.7-0.8-1.7-1.7v-9.7c0-0.9,0.7-1.7,1.7-1.7h15c0.9,0,1.7,0.7,1.7,1.7s-0.7,1.7-1.7,1.7
		H68.1v6.4h13.6c0.9,0,1.7,0.7,1.7,1.7C83.4,28.3,82.6,29,81.7,29"/>
	<path class="st0" d="M52,0H5.9C3.2,0,1.1,2.2,1.1,4.8v5.9h3.3V4.8c0-0.8,0.7-1.5,1.5-1.5H52c0.8,0,1.5,0.7,1.5,1.5v36.3H31.9
		c-0.8-4.9-5.1-8.7-10.3-8.7s-9.5,3.8-10.3,8.7H5.9c-0.8,0-1.5-0.7-1.5-1.5v-7.2H1.1v7.2c0,2.7,2.2,4.8,4.8,4.8h7
		c0.9,0,1.7-0.7,1.7-1.7c0-3.9,3.2-7.1,7.1-7.1s7.1,3.2,7.1,7.1c0,0.9,0.7,1.7,1.7,1.7h24.8c0.9,0,1.7-0.7,1.7-1.7v-38
		C56.8,2.2,54.6,0,52,0"/>
</g>
</svg>
