<?xml version="1.0" encoding="utf-8"?>
<!-- Generator: Adobe Illustrator 25.4.0, SVG Export Plug-In . SVG Version: 6.00 Build 0)  -->
<svg version="1.1" id="Capa_1" xmlns="http://www.w3.org/2000/svg" xmlns:xlink="http://www.w3.org/1999/xlink" x="0px" y="0px"
	 viewBox="0 0 67.5 61" style="enable-background:new 0 0 67.5 61;" xml:space="preserve">
<style type="text/css">
	.st0{fill:#64605D;}
</style>
<g>
	<path class="st0" d="M64.6,5.6c-1.9-1.9-4.5-2.9-7.1-2.9L56.3,0l-4.8,6.3l7.9,0.9l-1.1-2.5c1.8,0.2,3.6,1,4.9,2.3
		c1.4,1.4,2.2,3.3,2.3,5.2c0.1,1.5-0.3,3.7-2.3,5.8c-0.4,0.4-0.4,1,0,1.4c0.2,0.2,0.4,0.3,0.7,0.3c0.3,0,0.5-0.1,0.7-0.3
		c2-2,3-4.6,2.9-7.3C67.4,9.7,66.4,7.4,64.6,5.6"/>
	<g>
		<path class="st0" d="M54.6,11.4H4.8c-2.7,0-4.8,2.2-4.8,4.8v40C0,58.9,2.2,61,4.8,61h49.8c2.7,0,4.8-2.2,4.8-4.8v-40
			C59.5,13.6,57.3,11.4,54.6,11.4 M56.8,56.3L34.1,36.7l22.7-19.5V56.3L56.8,56.3z M2.7,56.3L2.7,56.3V17.2l22.7,19.5L2.7,56.3z
			 M54.6,14.1c0.4,0,0.8,0.1,1.2,0.4L32.1,34.9h-4.8L3.6,14.5c0.3-0.2,0.7-0.4,1.2-0.4H54.6z M4.8,58.4c-0.1,0-0.3,0-0.4,0
			l22.9-19.8h4.8L55,58.4c-0.1,0-0.3,0-0.4,0C54.7,58.4,4.8,58.4,4.8,58.4z"/>
	</g>
</g>
</svg>
