<?xml version="1.0" encoding="utf-8"?>
<!-- Generator: Adobe Illustrator 25.4.0, SVG Export Plug-In . SVG Version: 6.00 Build 0)  -->
<svg version="1.1" id="Capa_1" xmlns="http://www.w3.org/2000/svg" xmlns:xlink="http://www.w3.org/1999/xlink" x="0px" y="0px"
	 viewBox="0 0 76.3 50.7" style="enable-background:new 0 0 76.3 50.7;" xml:space="preserve">
<style type="text/css">
	.st0{display:none;}
	.st1{display:inline;fill:#7C7C7C;stroke:#1D1D1B;stroke-miterlimit:10;}
	.st2{display:inline;}
	.st3{fill:#2B2622;}
	.st4{fill:#FF5959;}
	.st5{fill:#FFFFFF;}
	.st6{fill:none;stroke:#2B2622;stroke-width:1.5;stroke-linecap:round;stroke-linejoin:round;stroke-miterlimit:10;}
	.st7{fill:#64605D;}
	.st8{fill:#FF5A5D;}
	.st9{fill:none;stroke:#F9F9F9;stroke-miterlimit:10;}
	.st10{fill:none;stroke:#BAB7B5;stroke-miterlimit:10;}
	.st11{fill:none;stroke:#FF5A5D;stroke-width:2;stroke-linecap:round;stroke-linejoin:round;stroke-miterlimit:10;}
	.st12{fill:#BDBDBC;}
	.st13{fill:#2E2925;}
	.st14{clip-path:url(#SVGID_00000086663671298821436770000013416921385445985921_);}
	.st15{clip-path:url(#SVGID_00000079464859432911882040000018354829358375440535_);}
</style>
<g id="Capa_2_00000152948214608198537130000001827980317073548702_" class="st0">
	<rect x="7" y="-4.7" class="st1" width="350" height="500"/>
	<g class="st2">
	</g>
</g>
<g>
	<path class="st7" d="M70.8,0H3.5C1,0-1,2-1,4.5V13v8.7v24.5c0,2.5,2,4.5,4.5,4.5h67.3c2.5,0,4.5-2,4.5-4.5V21.7V13V4.5
		C75.3,2,73.3,0,70.8,0 M3.5,3.1h67.3c0.8,0,1.4,0.6,1.4,1.4v7H2.1v-7C2.1,3.7,2.7,3.1,3.5,3.1 M70.8,47.6H3.5
		c-0.8,0-1.4-0.6-1.4-1.4v-23h70.1v23C72.2,47,71.6,47.6,70.8,47.6"/>
</g>
</svg>
