<?xml version="1.0" encoding="utf-8"?>
<!-- Generator: Adobe Illustrator 25.4.0, SVG Export Plug-In . SVG Version: 6.00 Build 0)  -->
<svg version="1.1" id="Capa_1" xmlns="http://www.w3.org/2000/svg" xmlns:xlink="http://www.w3.org/1999/xlink" x="0px" y="0px"
	 viewBox="0 0 67.5 61.1" style="enable-background:new 0 0 67.5 61.1;" xml:space="preserve">
<style type="text/css">
	.st0{display:none;}
	.st1{display:inline;fill:#7C7C7C;stroke:#1D1D1B;stroke-miterlimit:10;}
	.st2{display:inline;}
	.st3{fill:#2B2622;}
	.st4{fill:#FF5959;}
	.st5{fill:#FFFFFF;}
	.st6{fill:none;stroke:#2B2622;stroke-width:1.5;stroke-linecap:round;stroke-linejoin:round;stroke-miterlimit:10;}
	.st7{fill:#64605D;}
	.st8{fill:#FF5A5D;}
	.st9{fill:none;stroke:#F9F9F9;stroke-miterlimit:10;}
	.st10{fill:none;stroke:#BAB7B5;stroke-miterlimit:10;}
	.st11{fill:none;stroke:#FF5A5D;stroke-width:2;stroke-linecap:round;stroke-linejoin:round;stroke-miterlimit:10;}
	.st12{fill:#BDBDBC;}
	.st13{fill:#2E2925;}
	.st14{clip-path:url(#SVGID_00000119107326958207900340000000034221889046031800_);}
	.st15{clip-path:url(#SVGID_00000061443870996691795410000000337644773234398135_);}
</style>
<g>
	<path class="st4" d="M64.6,5.6c-1.9-1.9-4.5-2.9-7.1-2.9L56.3,0l-4.8,6.3l7.9,0.9l-1.1-2.5c1.8,0.2,3.6,1,4.9,2.3
		c1.4,1.4,2.2,3.3,2.3,5.2c0.1,1.5-0.3,3.7-2.3,5.8c-0.4,0.4-0.4,1,0,1.4c0.2,0.2,0.4,0.3,0.7,0.3s0.5-0.1,0.7-0.3
		c2-2,3-4.6,2.9-7.3C67.4,9.7,66.4,7.4,64.6,5.6"/>
	<path class="st4" d="M54.6,11.4H4.8c-2.7,0-4.8,2.2-4.8,4.8v40c0,2.7,2.2,4.8,4.8,4.8h49.8c2.7,0,4.8-2.2,4.8-4.8v-40
		C59.5,13.6,57.3,11.4,54.6,11.4 M56.8,56.3L34.1,36.7l22.7-19.5L56.8,56.3L56.8,56.3z M2.7,56.3L2.7,56.3l0-39.1l22.7,19.5
		L2.7,56.3z M54.6,14.1c0.4,0,0.8,0.1,1.2,0.4L32.1,34.9h-4.8L3.6,14.5c0.3-0.2,0.7-0.4,1.2-0.4C4.8,14.1,54.6,14.1,54.6,14.1z
		 M4.8,58.4c-0.1,0-0.3,0-0.4,0l22.9-19.8h4.8l22.9,19.8c-0.1,0-0.3,0-0.4,0H4.8z"/>
</g>
</svg>
