<?xml version="1.0" encoding="utf-8"?>
<!-- Generator: Adobe Illustrator 25.4.0, SVG Export Plug-In . SVG Version: 6.00 Build 0)  -->
<svg version="1.1" id="Capa_1" xmlns="http://www.w3.org/2000/svg" xmlns:xlink="http://www.w3.org/1999/xlink" x="0px" y="0px"
	 viewBox="0 0 83.4 53.2" style="enable-background:new 0 0 83.4 53.2;" xml:space="preserve">
<style type="text/css">
	.st0{display:none;}
	.st1{display:inline;fill:#7C7C7C;stroke:#1D1D1B;stroke-miterlimit:10;}
	.st2{display:inline;}
	.st3{fill:#2B2622;}
	.st4{fill:#FF5959;}
	.st5{fill:#FFFFFF;}
	.st6{fill:none;stroke:#2B2622;stroke-width:1.5;stroke-linecap:round;stroke-linejoin:round;stroke-miterlimit:10;}
	.st7{fill:#64605D;}
	.st8{fill:#FF5A5D;}
	.st9{fill:none;stroke:#F9F9F9;stroke-miterlimit:10;}
	.st10{fill:none;stroke:#BAB7B5;stroke-miterlimit:10;}
	.st11{fill:none;stroke:#FF5A5D;stroke-width:2;stroke-linecap:round;stroke-linejoin:round;stroke-miterlimit:10;}
	.st12{fill:#BDBDBC;}
	.st13{fill:#2E2925;}
	.st14{clip-path:url(#SVGID_00000147196023443648168480000007653538636546076054_);}
	.st15{clip-path:url(#SVGID_00000133510874025678091590000004646610747226819983_);}
</style>
<g>
	<path class="st7" d="M6.8,20.5c0.8,0,1.2,0.4,1.2,1.3c0,2.6-1.7,4.5-4.4,4.5c-2.7,0-4.6-2.2-4.6-4.9c0-2.8,1.9-4.9,4.6-4.9
		c2,0,3.7,1,3.7,1.9c0,0.6-0.4,0.9-0.8,0.9c-0.9,0-1.1-1-2.8-1c-1.7,0-2.5,1.5-2.5,3.1c0,1.6,0.8,3.1,2.5,3.1c1.1,0,2.3-0.6,2.3-2.1
		H4.5c-0.6,0-0.9-0.4-0.9-0.9c0-0.6,0.4-0.9,0.9-0.9C4.5,20.5,6.8,20.5,6.8,20.5z"/>
	<path class="st7" d="M10.1,17.7c0-0.6,0.4-1,1-1h2.4c2.1,0,3.3,0.9,3.3,3c0,1.5-1.1,2.3-2.5,2.5l2.3,2.4c0.2,0.2,0.3,0.4,0.3,0.6
		c0,0.5-0.4,1-1,1c-0.2,0-0.6-0.1-0.8-0.3l-3-3.6h0v2.9c0,0.7-0.4,1-1,1s-1-0.4-1-1L10.1,17.7L10.1,17.7z M12.1,20.9h1.4
		c0.7,0,1.2-0.4,1.2-1.2c0-0.8-0.5-1.2-1.2-1.2h-1.4V20.9z"/>
	<path class="st7" d="M21.1,17.6c0.2-0.6,0.8-1.1,1.4-1.1c0.7,0,1.2,0.5,1.4,1.1l2.6,7.3c0.1,0.2,0.1,0.4,0.1,0.5
		c0,0.5-0.4,0.9-0.9,0.9c-0.6,0-0.8-0.3-1-0.7l-0.4-1.3h-3.7l-0.4,1.2c-0.1,0.4-0.4,0.7-1,0.7c-0.5,0-1-0.4-1-0.9
		c0-0.2,0.1-0.4,0.1-0.4L21.1,17.6z M21.2,22.5h2.5l-1.2-3.9h0L21.2,22.5z"/>
	<path class="st7" d="M29,18.5h-1.5c-0.6,0-0.9-0.5-0.9-0.9c0-0.5,0.3-0.9,0.9-0.9h4.9c0.6,0,0.9,0.5,0.9,0.9c0,0.5-0.3,0.9-0.9,0.9
		H31v6.7c0,0.7-0.4,1-1,1c-0.6,0-1-0.4-1-1V18.5z"/>
	<path class="st7" d="M35.2,17.6c0-0.7,0.4-1,1-1c0.6,0,1,0.4,1,1v7.6c0,0.7-0.4,1-1,1c-0.6,0-1-0.4-1-1V17.6z"/>
	<path class="st7" d="M45.4,17.8c0,0.5-0.3,1-0.9,1c-0.5,0-1-0.4-1.8-0.4c-0.6,0-1.1,0.3-1.1,0.9c0,1.4,4.5,0.5,4.5,3.9
		c0,1.9-1.6,3.1-3.4,3.1c-1,0-3.2-0.2-3.2-1.5c0-0.5,0.3-0.9,0.9-0.9c0.6,0,1.4,0.5,2.2,0.5c0.9,0,1.4-0.5,1.4-1.2
		c0-1.6-4.5-0.6-4.5-3.7c0-1.9,1.5-3,3.3-3C43.5,16.5,45.4,16.8,45.4,17.8"/>
	<path class="st7" d="M20.6,53.2c-5.7,0-10.4-4.7-10.4-10.4c0-5.7,4.7-10.4,10.4-10.4c5.7,0,10.4,4.7,10.4,10.4
		C31,48.5,26.4,53.2,20.6,53.2 M20.6,35.7c-3.9,0-7.1,3.2-7.1,7.1c0,3.9,3.2,7.1,7.1,7.1c3.9,0,7.1-3.2,7.1-7.1
		C27.7,38.9,24.5,35.7,20.6,35.7"/>
	<path class="st7" d="M67.1,53.2c-5.7,0-10.4-4.7-10.4-10.4c0-5.7,4.7-10.4,10.4-10.4c5.7,0,10.4,4.7,10.4,10.4
		C77.5,48.5,72.9,53.2,67.1,53.2 M67.1,35.7c-3.9,0-7.1,3.2-7.1,7.1c0,3.9,3.2,7.1,7.1,7.1s7.1-3.2,7.1-7.1
		C74.2,38.9,71,35.7,67.1,35.7"/>
	<path class="st7" d="M80.7,44.5h-4.8c-0.9,0-1.7-0.7-1.7-1.7c0-3.9-3.2-7.1-7.1-7.1c-3.9,0-7.1,3.2-7.1,7.1c0,0.9-0.8,1.7-1.7,1.7
		h-4.3c-0.9,0-1.7-0.7-1.7-1.7v-34c0-0.9,0.7-1.7,1.7-1.7h14.3c4.9,0.2,13.9,3.2,13.9,12.8v22.8C82.4,43.7,81.6,44.5,80.7,44.5
		 M77.4,41.1H79V19.9c0-3.7-1.7-6.4-5.2-8c-2.7-1.3-5.5-1.4-5.5-1.4l-12.5,0v30.6h1.1c0.8-4.9,5.1-8.7,10.3-8.7
		C72.3,32.4,76.6,36.2,77.4,41.1"/>
	<path class="st7" d="M80.7,29H65.4c-0.9,0-1.7-0.8-1.7-1.7v-9.7c0-0.9,0.7-1.7,1.7-1.7h15c0.9,0,1.7,0.7,1.7,1.7s-0.7,1.7-1.7,1.7
		H67.1v6.4h13.6c0.9,0,1.7,0.7,1.7,1.7C82.4,28.3,81.6,29,80.7,29"/>
	<path class="st7" d="M51,0H4.9C2.2,0,0.1,2.2,0.1,4.8v5.9h3.3V4.8c0-0.8,0.7-1.5,1.5-1.5H51c0.8,0,1.5,0.7,1.5,1.5v36.3H30.9
		c-0.8-4.9-5.1-8.7-10.3-8.7c-5.2,0-9.5,3.8-10.3,8.7H4.9c-0.8,0-1.5-0.7-1.5-1.5v-7.2H0.1v7.2c0,2.7,2.2,4.8,4.8,4.8h7
		c0.9,0,1.7-0.7,1.7-1.7c0-3.9,3.2-7.1,7.1-7.1s7.1,3.2,7.1,7.1c0,0.9,0.7,1.7,1.7,1.7h24.8c0.9,0,1.7-0.7,1.7-1.7v-38
		C55.8,2.2,53.6,0,51,0"/>
</g>
</svg>
