<?xml version="1.0" encoding="utf-8"?>
<!-- Generator: Adobe Illustrator 25.4.0, SVG Export Plug-In . SVG Version: 6.00 Build 0)  -->
<svg version="1.1" id="Capa_1" xmlns="http://www.w3.org/2000/svg" xmlns:xlink="http://www.w3.org/1999/xlink" x="0px" y="0px"
	 viewBox="0 0 29.7 27.7" style="enable-background:new 0 0 29.7 27.7;" xml:space="preserve">
<style type="text/css">
	.st0{display:none;}
	.st1{display:inline;fill:#7C7C7C;stroke:#1D1D1B;stroke-miterlimit:10;}
	.st2{display:inline;}
	.st3{fill:#2B2622;}
	.st4{fill:#FF5959;}
	.st5{fill:#FFFFFF;}
	.st6{fill:none;stroke:#2B2622;stroke-width:1.5;stroke-linecap:round;stroke-linejoin:round;stroke-miterlimit:10;}
	.st7{fill:#64605D;}
	.st8{fill:#FF5A5D;}
	.st9{fill:none;stroke:#F9F9F9;stroke-miterlimit:10;}
	.st10{fill:none;stroke:#BAB7B5;stroke-miterlimit:10;}
	.st11{fill:none;stroke:#FF5A5D;stroke-width:2;stroke-linecap:round;stroke-linejoin:round;stroke-miterlimit:10;}
	.st12{fill:#BDBDBC;}
	.st13{fill:#2E2925;}
	.st14{clip-path:url(#SVGID_00000059269319407937368320000003022817157965672069_);}
	.st15{clip-path:url(#SVGID_00000150081056786138857730000012069534337346758068_);}
</style>
<g>
	<path class="st5" d="M28.3,14.1l1.4-7.8c0-0.2,0-0.5-0.2-0.7c-0.2-0.2-0.4-0.3-0.7-0.3H9L7.8,0.6C7.7,0.3,7.4,0,7,0H0.9
		C0.4,0,0,0.4,0,0.9c0,0.5,0.4,0.9,0.9,0.9h5.5l4.5,17.4c0.1,0.4,0.4,0.6,0.8,0.6h16.6c0.5,0,0.9-0.4,0.9-0.9s-0.4-0.9-0.9-0.9H12.3
		l-0.8-3.3h16C27.9,14.8,28.3,14.5,28.3,14.1 M11,13.1L9.5,7h18.4l-1.1,6.1H11z"/>
	<path class="st5" d="M25.6,21.6c-1.7,0-3,1.4-3,3c0,1.7,1.4,3,3,3c1.7,0,3-1.4,3-3C28.6,23,27.2,21.6,25.6,21.6"/>
	<path class="st5" d="M14.6,21.6c-1.7,0-3,1.4-3,3c0,1.7,1.4,3,3,3c1.7,0,3-1.4,3-3C17.6,23,16.2,21.6,14.6,21.6"/>
</g>
</svg>
