<?xml version="1.0" encoding="utf-8"?>
<!-- Generator: Adobe Illustrator 25.4.0, SVG Export Plug-In . SVG Version: 6.00 Build 0)  -->
<svg version="1.1" id="Capa_1" xmlns="http://www.w3.org/2000/svg" xmlns:xlink="http://www.w3.org/1999/xlink" x="0px" y="0px"
	 viewBox="0 0 32 32" style="enable-background:new 0 0 32 32;" xml:space="preserve">
<style type="text/css">
	.st0{display:none;}
	.st1{display:inline;fill:#7C7C7C;stroke:#1D1D1B;stroke-miterlimit:10;}
	.st2{display:inline;}
	.st3{fill:#2B2622;}
	.st4{fill:#FF5959;}
	.st5{fill:#FFFFFF;}
	.st6{fill:none;stroke:#2B2622;stroke-width:1.5;stroke-linecap:round;stroke-linejoin:round;stroke-miterlimit:10;}
	.st7{fill:#64605D;}
	.st8{fill:#FF5A5D;}
	.st9{fill:none;stroke:#F9F9F9;stroke-miterlimit:10;}
	.st10{fill:none;stroke:#BAB7B5;stroke-miterlimit:10;}
	.st11{fill:none;stroke:#FF5A5D;stroke-width:2;stroke-linecap:round;stroke-linejoin:round;stroke-miterlimit:10;}
	.st12{fill:#BDBDBC;}
	.st13{fill:#2E2925;}
	.st14{clip-path:url(#SVGID_00000051376853294767514670000001597955832428961169_);}
	.st15{clip-path:url(#SVGID_00000000196263886723130540000006568351300725865101_);}
</style>
<path class="st13" d="M7,21.9c1.6,1,3.4,1.6,5.4,1.6c6.5,0,10.2-5.5,10-10.5c0.7-0.5,1.3-1.1,1.8-1.8c-0.6,0.3-1.3,0.5-2,0.6
	c0.7-0.4,1.3-1.1,1.5-1.9c-0.7,0.4-1.4,0.7-2.2,0.9c-0.6-0.7-1.6-1.1-2.6-1.1c-2.3,0-3.9,2.1-3.4,4.3c-2.9-0.1-5.5-1.5-7.2-3.7
	c-0.9,1.6-0.5,3.6,1.1,4.7c-0.6,0-1.1-0.2-1.6-0.4c0,1.6,1.1,3.2,2.8,3.5c-0.5,0.1-1,0.2-1.6,0.1c0.4,1.4,1.7,2.4,3.3,2.4
	C10.7,21.6,8.9,22.1,7,21.9"/>
</svg>
