<?xml version="1.0" encoding="utf-8"?>
<!-- Generator: Adobe Illustrator 25.4.0, SVG Export Plug-In . SVG Version: 6.00 Build 0)  -->
<svg version="1.1" id="Capa_1" xmlns="http://www.w3.org/2000/svg" xmlns:xlink="http://www.w3.org/1999/xlink" x="0px" y="0px"
	 viewBox="0 0 27 26.3" style="enable-background:new 0 0 27 26.3;" xml:space="preserve">
<style type="text/css">
	.st0{display:none;}
	.st1{display:inline;fill:#7C7C7C;stroke:#1D1D1B;stroke-miterlimit:10;}
	.st2{display:inline;}
	.st3{fill:#2B2622;}
	.st4{fill:#FF5959;}
	.st5{fill:#FFFFFF;}
	.st6{fill:none;stroke:#2B2622;stroke-width:1.5;stroke-linecap:round;stroke-linejoin:round;stroke-miterlimit:10;}
	.st7{fill:#64605D;}
	.st8{fill:#FF5A5D;}
	.st9{fill:none;stroke:#F9F9F9;stroke-miterlimit:10;}
	.st10{fill:none;stroke:#BAB7B5;stroke-miterlimit:10;}
	.st11{fill:none;stroke:#FF5A5D;stroke-width:2;stroke-linecap:round;stroke-linejoin:round;stroke-miterlimit:10;}
	.st12{fill:#BDBDBC;}
	.st13{fill:#2E2925;}
	.st14{clip-path:url(#SVGID_00000145780461675093982490000010106435206025811863_);}
	.st15{clip-path:url(#SVGID_00000176765695861985831290000010202643361283281599_);}
</style>
<g>
	<path class="st4" d="M23.7,20c-0.1-0.2-2.5-4-11.8-4c-2.5,0-4.4,0.3-6,0.7c0,0-0.1,0-0.1,0c-4.3,1.1-5.6,3.2-5.7,3.3
		C0,20.1,0,20.2,0,20.3v5.4c0,0.4,0.3,0.7,0.7,0.7h22.5c0.4,0,0.7-0.3,0.7-0.7v-5.4C23.8,20.2,23.8,20.1,23.7,20 M16.6,17.7
		c-0.8,0.7-2.3,1.6-4.7,1.6c-2.3,0-3.8-0.9-4.6-1.6c1.3-0.2,2.8-0.4,4.6-0.4C13.7,17.3,15.3,17.4,16.6,17.7 M22.5,25H1.3v-4.5
		c0.3-0.4,1.5-1.7,4.5-2.5c0.7,0.8,2.7,2.5,6.1,2.5c3.6,0,5.6-1.8,6.2-2.5c2.9,0.8,4.1,2.1,4.4,2.5V25z"/>
	<path class="st4" d="M11.9,14.9c3.6,0,6.5-3.3,6.5-7.5c0-0.7-0.1-1.3-0.2-1.9c0-0.1,0-0.1,0-0.2C17.4,2.3,14.9,0,11.9,0
		c-1.8,0-3.5,0.9-4.7,2.2c0,0-0.1,0.1-0.1,0.1C6,3.7,5.3,5.5,5.3,7.5C5.3,11.6,8.3,14.9,11.9,14.9 M11.9,13.6
		c-2.9,0-5.2-2.8-5.2-6.2c0-1.4,0.4-2.7,1.1-3.7c1,0.9,3.5,2.3,9.3,2.5c0.1,0.4,0.1,0.8,0.1,1.2C17.1,10.9,14.8,13.6,11.9,13.6
		 M11.9,1.3c2.1,0,4,1.5,4.8,3.7c-5.4-0.2-7.5-1.6-8.1-2.2C9.4,1.8,10.6,1.3,11.9,1.3"/>
	<path class="st4" d="M23,3.6V1.8c0-0.2,0.1-0.4,0.2-0.5c0.1-0.1,0.3-0.2,0.5-0.2c0.2,0,0.4,0.1,0.5,0.2c0.1,0.1,0.2,0.3,0.2,0.5
		v1.8h1.8c0.2,0,0.4,0.1,0.5,0.2C26.9,4,27,4.1,27,4.4s-0.1,0.4-0.2,0.5c-0.1,0.1-0.3,0.2-0.5,0.2h-1.8v1.8c0,0.2-0.1,0.4-0.2,0.5
		c-0.1,0.1-0.3,0.2-0.5,0.2c-0.2,0-0.4-0.1-0.5-0.2C23.1,7.3,23,7.1,23,6.9V5.1h-1.8c-0.2,0-0.4-0.1-0.5-0.2
		c-0.1-0.1-0.2-0.3-0.2-0.5s0.1-0.4,0.2-0.5c0.1-0.1,0.3-0.2,0.5-0.2H23z"/>
</g>
</svg>
