<?xml version="1.0" encoding="utf-8"?>
<!-- Generator: Adobe Illustrator 25.4.0, SVG Export Plug-In . SVG Version: 6.00 Build 0)  -->
<svg version="1.1" id="Capa_1" xmlns="http://www.w3.org/2000/svg" xmlns:xlink="http://www.w3.org/1999/xlink" x="0px" y="0px"
	 viewBox="0 0 32 32" style="enable-background:new 0 0 32 32;" xml:space="preserve">
<style type="text/css">
	.st0{display:none;}
	.st1{display:inline;fill:#7C7C7C;stroke:#1D1D1B;stroke-miterlimit:10;}
	.st2{display:inline;}
	.st3{fill:#2B2622;}
	.st4{fill:#FF5959;}
	.st5{fill:#FFFFFF;}
	.st6{fill:none;stroke:#2B2622;stroke-width:1.5;stroke-linecap:round;stroke-linejoin:round;stroke-miterlimit:10;}
	.st7{fill:#64605D;}
	.st8{fill:#FF5A5D;}
	.st9{fill:none;stroke:#F9F9F9;stroke-miterlimit:10;}
	.st10{fill:none;stroke:#BAB7B5;stroke-miterlimit:10;}
	.st11{fill:none;stroke:#FF5A5D;stroke-width:2;stroke-linecap:round;stroke-linejoin:round;stroke-miterlimit:10;}
	.st12{fill:#BDBDBC;}
	.st13{fill:#2E2925;}
	.st14{clip-path:url(#SVGID_00000057866275053487324190000017245456810358658732_);}
	.st15{clip-path:url(#SVGID_00000105391015608002502800000003739215695700141234_);}
</style>
<path class="st13" d="M9.8,17.9c0.3,0.1,0.5,0,0.5-0.3c0.1-0.2,0.2-0.7,0.2-0.9c0.1-0.3,0-0.4-0.2-0.6c-0.4-0.5-0.7-1.2-0.7-2.2
	c0-2.8,2.1-5.2,5.4-5.2c2.9,0,4.6,1.8,4.6,4.2c0,3.2-1.4,5.8-3.5,5.8c-1.1,0-2-0.9-1.7-2.1c0.3-1.4,1-2.9,1-3.9
	c0-0.9-0.5-1.6-1.5-1.6c-1.2,0-2.1,1.2-2.1,2.8c0,1,0.3,1.7,0.3,1.7s-1.2,5.1-1.4,6c-0.4,1.8-0.1,3.9,0,4.2c0,0.1,0.2,0.2,0.3,0.1
	c0.1-0.1,1.5-1.9,2-3.6c0.1-0.5,0.8-3,0.8-3c0.4,0.7,1.5,1.4,2.7,1.4c3.5,0,5.9-3.2,5.9-7.5c0-3.3-2.8-6.3-6.9-6.3
	c-5.2,0-7.8,3.7-7.8,6.8C7.6,15.6,8.3,17.2,9.8,17.9"/>
</svg>
