<?xml version="1.0" encoding="utf-8"?>
<!-- Generator: Adobe Illustrator 25.4.0, SVG Export Plug-In . SVG Version: 6.00 Build 0)  -->
<svg version="1.1" id="Capa_1" xmlns="http://www.w3.org/2000/svg" xmlns:xlink="http://www.w3.org/1999/xlink" x="0px" y="0px"
	 viewBox="0 0 21.7 21.6" style="enable-background:new 0 0 21.7 21.6;" xml:space="preserve">
<style type="text/css">
	.st0{display:none;}
	.st1{display:inline;fill:#7C7C7C;stroke:#1D1D1B;stroke-miterlimit:10;}
	.st2{display:inline;}
	.st3{fill:#2B2622;}
	.st4{fill:#FF5959;}
	.st5{fill:#FFFFFF;}
	.st6{fill:none;stroke:#2B2622;stroke-width:1.5;stroke-linecap:round;stroke-linejoin:round;stroke-miterlimit:10;}
	.st7{fill:#64605D;}
	.st8{fill:#FF5A5D;}
	.st9{fill:none;stroke:#F9F9F9;stroke-miterlimit:10;}
	.st10{fill:none;stroke:#BAB7B5;stroke-miterlimit:10;}
	.st11{fill:none;stroke:#FF5A5D;stroke-width:2;stroke-linecap:round;stroke-linejoin:round;stroke-miterlimit:10;}
	.st12{fill:#BDBDBC;}
	.st13{fill:#2E2925;}
	.st14{clip-path:url(#SVGID_00000165954734716616947950000006767452534065708190_);}
	.st15{clip-path:url(#SVGID_00000078027406508010672580000006474180134133518775_);}
</style>
<g>
	<polygon class="st6" points="10.9,2.6 13,0.8 14.2,3.3 16.8,2.5 16.9,5.3 19.7,5.6 18.6,8.2 21,9.6 19,11.5 20.5,13.8 17.9,14.8 
		18.4,17.5 15.6,17.3 15,20 12.6,18.7 10.9,20.9 9.2,18.7 6.7,20 6.1,17.3 3.3,17.5 3.8,14.8 1.2,13.8 2.8,11.5 0.8,9.6 3.1,8.2 
		2.1,5.6 4.8,5.3 4.9,2.5 7.6,3.3 8.7,0.8 	"/>
</g>
</svg>
