<?xml version="1.0" encoding="utf-8"?>
<!-- Generator: Adobe Illustrator 25.4.0, SVG Export Plug-In . SVG Version: 6.00 Build 0)  -->
<svg version="1.1" id="Capa_1" xmlns="http://www.w3.org/2000/svg" xmlns:xlink="http://www.w3.org/1999/xlink" x="0px" y="0px"
	 viewBox="0 0 32 32.1" style="enable-background:new 0 0 32 32.1;" xml:space="preserve">
<style type="text/css">
	.st0{fill:#FF5959;}
</style>
<path class="st0" d="M8.8,16.1c0-2.4,0-2.6,0.1-3.6c0-0.9,0.2-1.3,0.3-1.6c0.2-0.4,0.3-0.7,0.7-1c0.3-0.3,0.6-0.5,1-0.7
	c0.3-0.1,0.8-0.3,1.6-0.3c0.9,0,1.2-0.1,3.6-0.1s2.6,0,3.6,0.1c0.9,0,1.3,0.2,1.6,0.3c0.4,0.2,0.7,0.4,1,0.7s0.5,0.6,0.7,1
	c0.1,0.3,0.3,0.8,0.3,1.6c0,0.9,0.1,1.2,0.1,3.6s0,2.6-0.1,3.6c0,0.9-0.2,1.3-0.3,1.6c-0.2,0.4-0.3,0.7-0.7,1
	c-0.3,0.3-0.6,0.5-1,0.7c-0.3,0.1-0.8,0.3-1.6,0.3c-0.9,0-1.2,0.1-3.6,0.1s-2.6,0-3.6-0.1c-0.9,0-1.3-0.2-1.6-0.3
	c-0.4-0.2-0.7-0.4-1-0.7s-0.5-0.6-0.7-1C9,21,8.9,20.5,8.8,19.6C8.8,18.7,8.8,18.4,8.8,16.1 M7.2,16.1c0,2.4,0,2.7,0.1,3.6
	c0,0.9,0.2,1.6,0.4,2.1c0.2,0.6,0.5,1.1,1,1.6s1,0.8,1.6,1s1.2,0.4,2.1,0.4s1.2,0.1,3.6,0.1s2.7,0,3.6-0.1c0.9,0,1.6-0.2,2.1-0.4
	c0.6-0.2,1.1-0.5,1.6-1s0.8-1,1-1.6s0.4-1.2,0.4-2.1s0.1-1.2,0.1-3.6s0-2.7-0.1-3.6c0-0.9-0.2-1.6-0.4-2.1c-0.2-0.6-0.5-1.1-1-1.6
	s-1-0.8-1.6-1s-1.2-0.4-2.1-0.4S18.4,7.3,16,7.3s-2.7,0-3.6,0.1c-0.9,0-1.6,0.2-2.1,0.4C9.6,8,9.1,8.3,8.7,8.8c-0.5,0.5-0.8,1-1,1.6
	s-0.4,1.2-0.4,2.1C7.2,13.4,7.2,13.7,7.2,16.1"/>
<path class="st0" d="M11.5,16.1c0,2.5,2,4.5,4.5,4.5s4.5-2,4.5-4.5s-2-4.5-4.5-4.5S11.5,13.6,11.5,16.1 M18.9,16.1
	c0,1.6-1.3,2.9-2.9,2.9s-2.9-1.3-2.9-2.9s1.3-2.9,2.9-2.9S18.9,14.5,18.9,16.1"/>
<path class="st0" d="M11.3,10.3c0.6,0,1.1,0.5,1.1,1.1s-0.5,1.1-1.1,1.1s-1.1-0.5-1.1-1.1S10.7,10.3,11.3,10.3"/>
<path class="st0" d="M32,0.8v21.7c0,5.3-4.3,9.6-9.6,9.6H9.6C4.3,32,0,27.7,0,22.4V0.8C0,0.3,0.3,0,0.7,0h30.5C31.7,0,32,0.3,32,0.8
	 M1.5,22.4c0,4.5,3.6,8.1,8.1,8.1h12.8c4.5,0,8.1-3.6,8.1-8.1V1.5h-29C1.5,1.5,1.5,22.4,1.5,22.4z"/>
</svg>
