<?xml version="1.0" encoding="utf-8"?>
<!-- Generator: Adobe Illustrator 25.4.0, SVG Export Plug-In . SVG Version: 6.00 Build 0)  -->
<svg version="1.1" id="Capa_1" xmlns="http://www.w3.org/2000/svg" xmlns:xlink="http://www.w3.org/1999/xlink" x="0px" y="0px"
	 viewBox="0 0 32 32" style="enable-background:new 0 0 32 32;" xml:space="preserve">
<style type="text/css">
	.st0{display:none;}
	.st1{display:inline;fill:#7C7C7C;stroke:#1D1D1B;stroke-miterlimit:10;}
	.st2{display:inline;}
	.st3{fill:#2B2622;}
	.st4{fill:#FF5959;}
	.st5{fill:#FFFFFF;}
	.st6{fill:none;stroke:#2B2622;stroke-width:1.5;stroke-linecap:round;stroke-linejoin:round;stroke-miterlimit:10;}
	.st7{fill:#64605D;}
	.st8{fill:#FF5A5D;}
	.st9{fill:none;stroke:#F9F9F9;stroke-miterlimit:10;}
	.st10{fill:none;stroke:#BAB7B5;stroke-miterlimit:10;}
	.st11{fill:none;stroke:#FF5A5D;stroke-width:2;stroke-linecap:round;stroke-linejoin:round;stroke-miterlimit:10;}
	.st12{fill:#BDBDBC;}
	.st13{fill:#2E2925;}
	.st14{clip-path:url(#SVGID_00000062160881899137234580000017713745647406154115_);}
	.st15{clip-path:url(#SVGID_00000091715406542025907540000007434372822340004029_);}
</style>
<path class="st12" d="M16.9,14.7h-6.3l0,1.8h4.2c-0.5,2.2-2,3.5-4.1,3.5c-2.7,0-4.9-2.2-4.9-4.9s2.2-4.9,4.9-4.9
	c1.3,0,2.5,0.5,3.4,1.3l1.4-1.2c-1.2-1.2-2.9-1.9-4.7-1.9C7,8.4,4,11.4,4,15.1s3,6.8,6.8,6.8c3.6,0,6.2-2.7,6.2-6.5L16.9,14.7z"/>
<rect x="19.1" y="14.8" class="st12" width="6.8" height="1.7"/>
<rect x="21.7" y="12.2" class="st12" width="1.7" height="6.8"/>
<path class="st12" d="M31,0.8v21.7c0,5.3-4.3,9.6-9.6,9.6H8.6C3.3,32-1,27.7-1,22.4V0.8C-1,0.3-0.7,0-0.3,0h30.5
	C30.7,0,31,0.3,31,0.8 M0.5,22.4c0,4.5,3.6,8.1,8.1,8.1h12.8c4.5,0,8.1-3.6,8.1-8.1V1.5h-29L0.5,22.4L0.5,22.4z"/>
</svg>
