<?xml version="1.0" encoding="utf-8"?>
<!-- Generator: Adobe Illustrator 25.4.0, SVG Export Plug-In . SVG Version: 6.00 Build 0)  -->
<svg version="1.1" id="Capa_1" xmlns="http://www.w3.org/2000/svg" xmlns:xlink="http://www.w3.org/1999/xlink" x="0px" y="0px"
	 viewBox="0 0 32 32" style="enable-background:new 0 0 32 32;" xml:space="preserve">
<style type="text/css">
	.st0{display:none;}
	.st1{display:inline;fill:#7C7C7C;stroke:#1D1D1B;stroke-miterlimit:10;}
	.st2{display:inline;}
	.st3{fill:#2B2622;}
	.st4{fill:#FF5959;}
	.st5{fill:#FFFFFF;}
	.st6{fill:none;stroke:#2B2622;stroke-width:1.5;stroke-linecap:round;stroke-linejoin:round;stroke-miterlimit:10;}
	.st7{fill:#64605D;}
	.st8{fill:#FF5A5D;}
	.st9{fill:none;stroke:#F9F9F9;stroke-miterlimit:10;}
	.st10{fill:none;stroke:#BAB7B5;stroke-miterlimit:10;}
	.st11{fill:none;stroke:#FF5A5D;stroke-width:2;stroke-linecap:round;stroke-linejoin:round;stroke-miterlimit:10;}
	.st12{fill:#BDBDBC;}
	.st13{fill:#2E2925;}
	.st14{clip-path:url(#SVGID_00000078741773533702339120000005255904267958911150_);}
	.st15{clip-path:url(#SVGID_00000030451183014930474130000008469926762724969662_);}
</style>
<path class="st12" d="M17.2,13.7c0.3,0,0.7-0.1,1.1-0.6v0.6h0.9v-5h-0.9v3.8c-0.1,0.1-0.4,0.4-0.6,0.4c-0.2,0-0.2-0.1-0.2-0.3V8.6
	h-0.9v4.2C16.6,13.3,16.7,13.7,17.2,13.7"/>
<path class="st12" d="M13.1,12.4c0,0.9,0.5,1.3,1.4,1.3c0.8,0,1.3-0.5,1.3-1.3V9.9c0-0.8-0.6-1.3-1.3-1.3c-0.8,0-1.4,0.5-1.4,1.3
	V12.4z M14,10c0-0.3,0.1-0.5,0.4-0.5c0.3,0,0.4,0.2,0.4,0.5v2.3c0,0.3-0.1,0.5-0.4,0.5c-0.3,0-0.4-0.2-0.4-0.5V10z"/>
<polygon class="st12" points="10.8,13.6 11.9,13.6 11.9,10.8 13.1,6.8 12.1,6.8 11.4,9.5 10.7,6.8 9.6,6.8 10.8,10.8 "/>
<path class="st12" d="M20.5,14.7h-11c-1.2,0-2.1,1-2.1,2.1v5.4c0,1.2,1,2.1,2.1,2.1h11c1.2,0,2.1-1,2.1-2.1v-5.4
	C22.6,15.7,21.7,14.7,20.5,14.7 M11,22.8h-1v-5.5h-1v-0.9H12v0.9h-1V22.8z M14.5,22.8h-0.9v-0.5c-0.2,0.2-0.3,0.3-0.5,0.4
	C12.6,23,12,23,12,22v-4h0.9v3.7c0,0.2,0,0.3,0.2,0.3c0.2,0,0.4-0.2,0.5-0.4V18h0.9L14.5,22.8L14.5,22.8z M17.9,21.8
	c0,0.6-0.2,1-0.8,1c-0.3,0-0.6-0.1-0.8-0.4v0.4h-0.9v-6.5h0.9v2.1c0.2-0.2,0.5-0.4,0.8-0.4c0.6,0,0.9,0.5,0.9,1.2L17.9,21.8
	L17.9,21.8z M21.2,20.5h-1.7v0.9c0,0.4,0,0.7,0.4,0.7c0.4,0,0.4-0.3,0.4-0.7v-0.3h0.9v0.4c0,0.9-0.4,1.5-1.3,1.5
	c-0.8,0-1.3-0.6-1.3-1.5v-2.1c0-0.8,0.5-1.4,1.3-1.4c0.9,0,1.3,0.5,1.3,1.4L21.2,20.5L21.2,20.5z"/>
<path class="st12" d="M19.9,18.8c-0.3,0-0.4,0.2-0.4,0.6v0.5h0.8v-0.5C20.3,19,20.2,18.8,19.9,18.8"/>
<path class="st12" d="M16.5,18.8c-0.1,0-0.1,0.1-0.2,0.1v3c0.1,0.1,0.1,0.1,0.2,0.2c0.1,0.1,0.4,0.1,0.5,0C17,22,17,21.9,17,21.7
	v-2.5c0-0.2,0-0.3-0.1-0.4C16.8,18.7,16.6,18.7,16.5,18.8"/>
<path class="st12" d="M31,0.8v21.7c0,5.3-4.3,9.6-9.6,9.6H8.6C3.3,32-1,27.7-1,22.4V0.8C-1,0.3-0.7,0-0.3,0h30.5
	C30.7,0,31,0.3,31,0.8 M0.5,22.4c0,4.5,3.6,8.1,8.1,8.1h12.8c4.5,0,8.1-3.6,8.1-8.1V1.5h-29L0.5,22.4L0.5,22.4z"/>
</svg>
