<?xml version="1.0" encoding="utf-8"?>
<!-- Generator: Adobe Illustrator 25.4.0, SVG Export Plug-In . SVG Version: 6.00 Build 0)  -->
<svg version="1.1" id="Capa_1" xmlns="http://www.w3.org/2000/svg" xmlns:xlink="http://www.w3.org/1999/xlink" x="0px" y="0px"
	 viewBox="0 0 32 32" style="enable-background:new 0 0 32 32;" xml:space="preserve">
<style type="text/css">
	.st0{display:none;}
	.st1{display:inline;fill:#7C7C7C;stroke:#1D1D1B;stroke-miterlimit:10;}
	.st2{display:inline;}
	.st3{fill:#2B2622;}
	.st4{fill:#FF5959;}
	.st5{fill:#FFFFFF;}
	.st6{fill:none;stroke:#2B2622;stroke-width:1.5;stroke-linecap:round;stroke-linejoin:round;stroke-miterlimit:10;}
	.st7{fill:#64605D;}
	.st8{fill:#FF5A5D;}
	.st9{fill:none;stroke:#F9F9F9;stroke-miterlimit:10;}
	.st10{fill:none;stroke:#BAB7B5;stroke-miterlimit:10;}
	.st11{fill:none;stroke:#FF5A5D;stroke-width:2;stroke-linecap:round;stroke-linejoin:round;stroke-miterlimit:10;}
	.st12{fill:#BDBDBC;}
	.st13{fill:#2E2925;}
	.st14{clip-path:url(#SVGID_00000160888684284809650850000010514052920505486983_);}
	.st15{clip-path:url(#SVGID_00000176024219538489551480000008274083486187283082_);}
</style>
<path class="st12" d="M7.8,16.1c0-2.4,0-2.6,0.1-3.6c0-0.9,0.2-1.3,0.3-1.6c0.2-0.4,0.3-0.7,0.7-1c0.3-0.3,0.6-0.5,1-0.7
	c0.3-0.1,0.8-0.3,1.6-0.3c0.9,0,1.2-0.1,3.6-0.1c2.4,0,2.6,0,3.6,0.1c0.9,0,1.3,0.2,1.6,0.3c0.4,0.2,0.7,0.4,1,0.7
	c0.3,0.3,0.5,0.6,0.7,1c0.1,0.3,0.3,0.8,0.3,1.6c0,0.9,0.1,1.2,0.1,3.6s0,2.6-0.1,3.6c0,0.9-0.2,1.3-0.3,1.6c-0.2,0.4-0.3,0.7-0.7,1
	c-0.3,0.3-0.6,0.5-1,0.7c-0.3,0.1-0.8,0.3-1.6,0.3c-0.9,0-1.2,0.1-3.6,0.1c-2.4,0-2.6,0-3.6-0.1c-0.9,0-1.3-0.2-1.6-0.3
	c-0.4-0.2-0.7-0.4-1-0.7s-0.5-0.6-0.7-1C8,21,7.9,20.5,7.8,19.6C7.8,18.7,7.8,18.4,7.8,16.1 M6.2,16.1c0,2.4,0,2.7,0.1,3.6
	c0,0.9,0.2,1.6,0.4,2.1c0.2,0.6,0.5,1.1,1,1.6c0.5,0.5,1,0.8,1.6,1c0.6,0.2,1.2,0.4,2.1,0.4c0.9,0,1.2,0.1,3.6,0.1
	c2.4,0,2.7,0,3.6-0.1c0.9,0,1.6-0.2,2.1-0.4c0.6-0.2,1.1-0.5,1.6-1c0.5-0.5,0.8-1,1-1.6c0.2-0.6,0.4-1.2,0.4-2.1
	c0-0.9,0.1-1.2,0.1-3.6s0-2.7-0.1-3.6c0-0.9-0.2-1.6-0.4-2.1c-0.2-0.6-0.5-1.1-1-1.6c-0.5-0.5-1-0.8-1.6-1c-0.6-0.2-1.2-0.4-2.1-0.4
	c-0.9,0-1.2-0.1-3.6-0.1c-2.4,0-2.7,0-3.6,0.1c-0.9,0-1.6,0.2-2.1,0.4C8.6,8,8.1,8.3,7.7,8.8c-0.5,0.5-0.8,1-1,1.6
	c-0.2,0.6-0.4,1.2-0.4,2.1C6.2,13.4,6.2,13.7,6.2,16.1"/>
<path class="st12" d="M10.5,16.1c0,2.5,2,4.5,4.5,4.5s4.5-2,4.5-4.5s-2-4.5-4.5-4.5S10.5,13.6,10.5,16.1 M17.9,16.1
	c0,1.6-1.3,2.9-2.9,2.9s-2.9-1.3-2.9-2.9s1.3-2.9,2.9-2.9S17.9,14.5,17.9,16.1"/>
<path class="st12" d="M10.3,10.3c0.6,0,1.1,0.5,1.1,1.1c0,0.6-0.5,1.1-1.1,1.1c-0.6,0-1.1-0.5-1.1-1.1C9.2,10.8,9.7,10.3,10.3,10.3"
	/>
<path class="st12" d="M31,0.8v21.7c0,5.3-4.3,9.6-9.6,9.6H8.6C3.3,32-1,27.7-1,22.4V0.8C-1,0.3-0.7,0-0.3,0h30.5
	C30.7,0,31,0.3,31,0.8 M0.5,22.4c0,4.5,3.6,8.1,8.1,8.1h12.8c4.5,0,8.1-3.6,8.1-8.1V1.5h-29V22.4z"/>
</svg>
