<?xml version="1.0" encoding="utf-8"?>
<!-- Generator: Adobe Illustrator 25.4.0, SVG Export Plug-In . SVG Version: 6.00 Build 0)  -->
<svg version="1.1" id="Capa_1" xmlns="http://www.w3.org/2000/svg" xmlns:xlink="http://www.w3.org/1999/xlink" x="0px" y="0px"
	 viewBox="0 0 32 32.1" style="enable-background:new 0 0 32 32.1;" xml:space="preserve">
<style type="text/css">
	.st0{fill:#FF5959;}
</style>
<path class="st0" d="M13.6,25.7h3.9v-9.8h2.7l0.3-3.3h-3v-1.9c0-0.8,0.2-1.1,0.9-1.1h2.1V6.3h-2.7c-2.9,0-4.2,1.3-4.2,3.7v2.6h-2
	v3.3h2C13.6,15.9,13.6,25.7,13.6,25.7z"/>
<path class="st0" d="M32,0.8v21.7c0,5.3-4.3,9.6-9.6,9.6H9.6C4.3,32,0,27.7,0,22.4V0.8C0,0.3,0.3,0,0.7,0h30.5C31.7,0,32,0.3,32,0.8
	 M1.5,22.4c0,4.5,3.6,8.1,8.1,8.1h12.8c4.5,0,8.1-3.6,8.1-8.1V1.5h-29C1.5,1.5,1.5,22.4,1.5,22.4z"/>
</svg>
