<?xml version="1.0" encoding="utf-8"?>
<!-- Generator: Adobe Illustrator 25.4.0, SVG Export Plug-In . SVG Version: 6.00 Build 0)  -->
<svg version="1.1" id="Capa_1" xmlns="http://www.w3.org/2000/svg" xmlns:xlink="http://www.w3.org/1999/xlink" x="0px" y="0px"
	 viewBox="0 0 32 32.1" style="enable-background:new 0 0 32 32.1;" xml:space="preserve">
<style type="text/css">
	.st0{fill:#BDBDBC;}
</style>
<path class="st0" d="M8,21.9c1.6,1,3.4,1.6,5.4,1.6c6.5,0,10.2-5.5,10-10.5c0.7-0.5,1.3-1.1,1.8-1.8c-0.6,0.3-1.3,0.5-2,0.6
	c0.7-0.4,1.3-1.1,1.5-1.9c-0.7,0.4-1.4,0.7-2.2,0.9c-0.6-0.7-1.6-1.1-2.6-1.1c-2.3,0-3.9,2.1-3.4,4.3c-2.9-0.1-5.5-1.5-7.2-3.7
	c-0.9,1.6-0.5,3.6,1.1,4.7c-0.6,0-1.1-0.2-1.6-0.4c0,1.6,1.1,3.2,2.8,3.5c-0.5,0.1-1,0.2-1.6,0.1c0.4,1.4,1.7,2.4,3.3,2.4
	C11.7,21.6,9.9,22.1,8,21.9"/>
<path class="st0" d="M32,0.8v21.7c0,5.3-4.3,9.6-9.6,9.6H9.6C4.3,32,0,27.7,0,22.4V0.8C0,0.3,0.3,0,0.7,0h30.5C31.7,0,32,0.3,32,0.8
	 M1.5,22.4c0,4.5,3.6,8.1,8.1,8.1h12.8c4.5,0,8.1-3.6,8.1-8.1V1.5h-29C1.5,1.5,1.5,22.4,1.5,22.4z"/>
</svg>
