<?xml version="1.0" encoding="utf-8"?>
<!-- Generator: Adobe Illustrator 25.4.0, SVG Export Plug-In . SVG Version: 6.00 Build 0)  -->
<svg version="1.1" id="Capa_1" xmlns="http://www.w3.org/2000/svg" xmlns:xlink="http://www.w3.org/1999/xlink" x="0px" y="0px"
	 viewBox="0 0 32 32.1" style="enable-background:new 0 0 32 32.1;" xml:space="preserve">
<style type="text/css">
	.st0{fill:#FF5959;}
</style>
<path class="st0" d="M18.2,13.7c0.3,0,0.7-0.1,1.1-0.6v0.6h0.9v-5h-0.9v3.8c-0.1,0.1-0.4,0.4-0.6,0.4s-0.2-0.1-0.2-0.3v-4h-0.9v4.2
	C17.6,13.3,17.7,13.7,18.2,13.7"/>
<path class="st0" d="M14.1,12.4c0,0.9,0.5,1.3,1.4,1.3c0.8,0,1.3-0.5,1.3-1.3V9.9c0-0.8-0.6-1.3-1.3-1.3c-0.8,0-1.4,0.5-1.4,1.3
	V12.4z M15,10c0-0.3,0.1-0.5,0.4-0.5c0.3,0,0.4,0.2,0.4,0.5v2.3c0,0.3-0.1,0.5-0.4,0.5c-0.3,0-0.4-0.2-0.4-0.5V10z"/>
<polygon class="st0" points="11.8,13.6 12.9,13.6 12.9,10.8 14.1,6.8 13.1,6.8 12.4,9.5 11.7,6.8 10.6,6.8 11.8,10.8 "/>
<path class="st0" d="M21.5,14.7h-11c-1.2,0-2.1,1-2.1,2.1v5.4c0,1.2,1,2.1,2.1,2.1h11c1.2,0,2.1-1,2.1-2.1v-5.4
	C23.6,15.7,22.7,14.7,21.5,14.7 M12,22.8h-1v-5.5h-1v-0.9h3v0.9h-1V22.8z M15.5,22.8h-0.9v-0.5c-0.2,0.2-0.3,0.3-0.5,0.4
	C13.6,23,13,23,13,22v-4h0.9v3.7c0,0.2,0,0.3,0.2,0.3s0.4-0.2,0.5-0.4V18h0.9L15.5,22.8L15.5,22.8z M18.9,21.8c0,0.6-0.2,1-0.8,1
	c-0.3,0-0.6-0.1-0.8-0.4v0.4h-0.9v-6.5h0.9v2.1c0.2-0.2,0.5-0.4,0.8-0.4c0.6,0,0.9,0.5,0.9,1.2L18.9,21.8L18.9,21.8z M22.2,20.5
	h-1.7v0.9c0,0.4,0,0.7,0.4,0.7s0.4-0.3,0.4-0.7v-0.3h0.9v0.4c0,0.9-0.4,1.5-1.3,1.5c-0.8,0-1.3-0.6-1.3-1.5v-2.1
	c0-0.8,0.5-1.4,1.3-1.4c0.9,0,1.3,0.5,1.3,1.4L22.2,20.5L22.2,20.5z"/>
<path class="st0" d="M20.9,18.8c-0.3,0-0.4,0.2-0.4,0.6v0.5h0.8v-0.5C21.3,19,21.2,18.8,20.9,18.8"/>
<path class="st0" d="M17.5,18.8c-0.1,0-0.1,0.1-0.2,0.1v3c0.1,0.1,0.1,0.1,0.2,0.2s0.4,0.1,0.5,0c0-0.1,0-0.2,0-0.4v-2.5
	c0-0.2,0-0.3-0.1-0.4S17.6,18.7,17.5,18.8"/>
<path class="st0" d="M32,0.8v21.7c0,5.3-4.3,9.6-9.6,9.6H9.6C4.3,32,0,27.7,0,22.4V0.8C0,0.3,0.3,0,0.7,0h30.5C31.7,0,32,0.3,32,0.8
	 M1.5,22.4c0,4.5,3.6,8.1,8.1,8.1h12.8c4.5,0,8.1-3.6,8.1-8.1V1.5h-29L1.5,22.4L1.5,22.4z"/>
</svg>
