<?xml version="1.0" encoding="utf-8"?>
<!-- Generator: Adobe Illustrator 25.4.0, SVG Export Plug-In . SVG Version: 6.00 Build 0)  -->
<svg version="1.1" id="Capa_1" xmlns="http://www.w3.org/2000/svg" xmlns:xlink="http://www.w3.org/1999/xlink" x="0px" y="0px"
	 viewBox="0 0 32 32.1" style="enable-background:new 0 0 32 32.1;" xml:space="preserve">
<style type="text/css">
	.st0{fill:#BDBDBC;}
</style>
<path class="st0" d="M17.9,14.7h-6.3v1.8h4.2c-0.5,2.2-2,3.5-4.1,3.5c-2.7,0-4.9-2.2-4.9-4.9s2.2-4.9,4.9-4.9c1.3,0,2.5,0.5,3.4,1.3
	l1.4-1.2c-1.2-1.2-2.9-1.9-4.7-1.9C8,8.4,5,11.4,5,15.1s3,6.8,6.8,6.8c3.6,0,6.2-2.7,6.2-6.5L17.9,14.7z"/>
<rect x="20.1" y="14.8" class="st0" width="6.8" height="1.7"/>
<rect x="22.7" y="12.2" class="st0" width="1.7" height="6.8"/>
<path class="st0" d="M32,0.8v21.7c0,5.3-4.3,9.6-9.6,9.6H9.6C4.3,32,0,27.7,0,22.4V0.8C0,0.3,0.3,0,0.7,0h30.5C31.7,0,32,0.3,32,0.8
	 M1.5,22.4c0,4.5,3.6,8.1,8.1,8.1h12.8c4.5,0,8.1-3.6,8.1-8.1V1.5h-29L1.5,22.4L1.5,22.4z"/>
</svg>
