<?xml version="1.0" encoding="utf-8"?>
<!-- Generator: Adobe Illustrator 25.4.0, SVG Export Plug-In . SVG Version: 6.00 Build 0)  -->
<svg version="1.1" id="Capa_1" xmlns="http://www.w3.org/2000/svg" xmlns:xlink="http://www.w3.org/1999/xlink" x="0px" y="0px"
	 viewBox="0 0 32 32" style="enable-background:new 0 0 32 32;" xml:space="preserve">
<style type="text/css">
	.st0{display:none;}
	.st1{display:inline;fill:#7C7C7C;stroke:#1D1D1B;stroke-miterlimit:10;}
	.st2{display:inline;}
	.st3{fill:#2B2622;}
	.st4{fill:#FF5959;}
	.st5{fill:#FFFFFF;}
	.st6{fill:none;stroke:#2B2622;stroke-width:1.5;stroke-linecap:round;stroke-linejoin:round;stroke-miterlimit:10;}
	.st7{fill:#64605D;}
	.st8{fill:#FF5A5D;}
	.st9{fill:none;stroke:#F9F9F9;stroke-miterlimit:10;}
	.st10{fill:none;stroke:#BAB7B5;stroke-miterlimit:10;}
	.st11{fill:none;stroke:#FF5A5D;stroke-width:2;stroke-linecap:round;stroke-linejoin:round;stroke-miterlimit:10;}
	.st12{fill:#BDBDBC;}
	.st13{fill:#2E2925;}
	.st14{clip-path:url(#SVGID_00000051365856281597548260000010059659473024016773_);}
	.st15{clip-path:url(#SVGID_00000050636378126373865880000009649984331255031187_);}
</style>
<path class="st12" d="M12.5,25.8h3.9V16h2.7l0.3-3.3h-3v-1.9c0-0.8,0.2-1.1,0.9-1.1h2.1V6.4h-2.7c-2.9,0-4.2,1.3-4.2,3.7v2.6h-2V16
	h2C12.5,16,12.5,25.8,12.5,25.8z"/>
<path class="st12" d="M31,0.8v21.7c0,5.3-4.3,9.6-9.6,9.6H8.6C3.3,32-1,27.7-1,22.4V0.8C-1,0.3-0.7,0-0.3,0h30.5
	C30.7,0,31,0.3,31,0.8 M0.5,22.4c0,4.5,3.6,8.1,8.1,8.1h12.8c4.5,0,8.1-3.6,8.1-8.1V1.5h-29V22.4z"/>
</svg>
