<?xml version="1.0" encoding="utf-8"?>
<!-- Generator: Adobe Illustrator 25.4.0, SVG Export Plug-In . SVG Version: 6.00 Build 0)  -->
<svg version="1.1" id="Capa_1" xmlns="http://www.w3.org/2000/svg" xmlns:xlink="http://www.w3.org/1999/xlink" x="0px" y="0px"
	 viewBox="0 0 32 32.1" style="enable-background:new 0 0 32 32.1;" xml:space="preserve">
<style type="text/css">
	.st0{fill:#FF5959;}
</style>
<path class="st0" d="M10.8,17.9c0.3,0.1,0.5,0,0.5-0.3c0.1-0.2,0.2-0.7,0.2-0.9c0.1-0.3,0-0.4-0.2-0.6c-0.4-0.5-0.7-1.2-0.7-2.2
	c0-2.8,2.1-5.2,5.4-5.2c2.9,0,4.6,1.8,4.6,4.2c0,3.2-1.4,5.8-3.5,5.8c-1.1,0-2-0.9-1.7-2.1c0.3-1.4,1-2.9,1-3.9
	c0-0.9-0.5-1.6-1.5-1.6c-1.2,0-2.1,1.2-2.1,2.8c0,1,0.3,1.7,0.3,1.7s-1.2,5.1-1.4,6c-0.4,1.8-0.1,3.9,0,4.2c0,0.1,0.2,0.2,0.3,0.1
	s1.5-1.9,2-3.6c0.1-0.5,0.8-3,0.8-3c0.4,0.7,1.5,1.4,2.7,1.4c3.5,0,5.9-3.2,5.9-7.5c0-3.3-2.8-6.3-6.9-6.3c-5.2,0-7.8,3.7-7.8,6.9
	C8.6,15.6,9.3,17.2,10.8,17.9"/>
<path class="st0" d="M32,0.8v21.7c0,5.3-4.3,9.6-9.6,9.6H9.6C4.3,32,0,27.7,0,22.4V0.8C0,0.3,0.3,0,0.7,0h30.5C31.7,0,32,0.3,32,0.8
	 M1.5,22.4c0,4.5,3.6,8.1,8.1,8.1h12.8c4.5,0,8.1-3.6,8.1-8.1V1.5h-29C1.5,1.5,1.5,22.4,1.5,22.4z"/>
</svg>
